<svg xmlns="http://www.w3.org/2000/svg" viewBox="0 0 139.9 185.3"><defs><style>.d14dc85c-19c9-4ad8-9ee2-1c98a13790b5{fill:#dea6e0;}.\34 5ca6a67-920d-4769-adc1-6c8724b8dddb{fill:#fff;}.\39 e0452f1-a064-4774-8679-9df121bd56fa{fill:#936296;}.\31 97a57d7-0dde-42eb-981f-c4fd2ab597ce{fill:#56260b;}</style></defs><title>资源 1</title><g id="2b9f83f6-3ad0-4bf6-bef0-139d1997dd66" data-name="图层 2"><g id="d3c74a85-a6b4-4b31-9815-fc39f51de4bb" data-name="图层 1"><path class="d14dc85c-19c9-4ad8-9ee2-1c98a13790b5" d="M40.7,17.9c5.6,9.9,6.5,20,2,22.6S23.4,45.6,16.1,31C7.9,14.5,18,0,18,0S35,8.1,40.7,17.9Z"/><path class="d14dc85c-19c9-4ad8-9ee2-1c98a13790b5" d="M99.5,17.9c-5.7,9.9-6.6,20-2,22.6S116.7,45.6,124,31c8.3-16.5-1.8-31-1.8-31S105.1,8.1,99.5,17.9Z"/><path class="45ca6a67-920d-4769-adc1-6c8724b8dddb" d="M32.3,185.2l-17.1-4.3a3.6,3.6,0,0,1-2.6-4.4L16.8,165l21.6,5.3-1.7,12.2A3.7,3.7,0,0,1,32.3,185.2Z"/><path class="45ca6a67-920d-4769-adc1-6c8724b8dddb" d="M108.2,185.2l17.1-4.3a3.6,3.6,0,0,0,2.6-4.4L123.7,165l-21.6,5.3,1.7,12.2A3.7,3.7,0,0,0,108.2,185.2Z"/><path class="d14dc85c-19c9-4ad8-9ee2-1c98a13790b5" d="M135.2,115.7C114.2,45.4,140.1,12.3,70,12.6S25.8,45.4,4.7,115.7c-17.7,59,16.5,62.7,65.3,62.7S152.9,174.7,135.2,115.7Z"/><ellipse class="9e0452f1-a064-4774-8679-9df121bd56fa" cx="22.1" cy="147.6" rx="7.6" ry="10.7"/><ellipse class="9e0452f1-a064-4774-8679-9df121bd56fa" cx="117.2" cy="147.6" rx="7.6" ry="10.7"/><circle class="197a57d7-0dde-42eb-981f-c4fd2ab597ce" cx="45.9" cy="45.5" r="6.4"/><circle class="197a57d7-0dde-42eb-981f-c4fd2ab597ce" cx="94" cy="45.5" r="6.4"/></g></g></svg>